<svg xmlns="http://www.w3.org/2000/svg" version="1.1" xmlns:xlink="http://www.w3.org/1999/xlink" xmlns:svgjs="http://svgjs.dev/svgjs" width="1000" height="287" viewBox="0 0 1000 287"><g transform="matrix(1,0,0,1,-0.605728986167037,-0.051442796581767425)"><svg viewBox="0 0 396 114" data-background-color="#ffffff" preserveAspectRatio="xMidYMid meet" height="287" width="1000" xmlns="http://www.w3.org/2000/svg" xmlns:xlink="http://www.w3.org/1999/xlink"><g id="tight-bounds" transform="matrix(1,0,0,1,0.2398686785221571,0.020433724077776105)"><svg viewBox="0 0 395.52 113.95886990888866" height="113.95886990888866" width="395.52"><g><svg viewBox="0 0 603.5960188509409 173.91059918526872" height="113.95886990888866" width="395.52"><g transform="matrix(1,0,0,1,0,50.77476910068243)"><svg viewBox="0 0 395.52 72.36106098390387" height="72.36106098390387" width="395.52"><g id="textblocktransform"><svg viewBox="0 0 395.52 72.36106098390387" height="72.36106098390387" width="395.52" id="textblock"><g><svg viewBox="0 0 395.52 72.36106098390387" height="72.36106098390387" width="395.52"><g transform="matrix(1,0,0,1,0,0)"><svg width="395.52" viewBox="2.799999952316284 -38.95000076293945 215.26998901367188 40.35000228881836" height="72.36106098390387" data-palette-color="#f96864"><g class="wordmark-text-0" data-fill-palette-color="primary" id="text-0"><path d="M12.25 0.5Q11.3 0.5 10.4-0.85L10.4-0.85 10.4-1Q10.25-3.65 9.5-6.9 8.75-10.15 7.3-14.75L7.3-14.75Q6.2-18.2 5.45-20.95L5.45-20.95 5.45-1.25Q5.45-0.45 5.18-0.08 4.9 0.3 4.1 0.3L4.1 0.3Q3.5 0.3 3.15-0.08 2.8-0.45 2.8-1.05L2.8-1.05 2.8-1.45 2.9-16.15Q3-22.65 3-30.8L3-30.8 3-36.95Q3-37.55 3.25-37.77 3.5-38 4.3-38L4.3-38Q5.55-38 6.6-37.52 7.65-37.05 8.4-36.2L8.4-36.2Q9.95-34.45 10.4-32L10.4-32Q10.6-31 10.6-29.7L10.6-29.7Q10.6-28.95 10.48-28.05 10.35-27.15 10.3-26.9L10.3-26.9Q10.2-26.4 9.85-25.4 9.5-24.4 9.4-24.1L9.4-24.1 8.8-22.7 8.3-21.4Q8.35-19.6 8.93-16.85 9.5-14.1 10.2-11.75L10.2-11.75Q10.7-10.1 12-6.25L12-6.25 13.45-1.85 13.45-1.75Q13.45-0.9 13.3-0.3L13.3-0.3Q13.15 0.5 12.25 0.5L12.25 0.5ZM5.35-23.2Q6.05-23.9 7.05-25.15L7.05-25.15 7.8-29.45Q7.85-29.7 7.85-30.15L7.85-30.15Q7.85-31.6 7.3-33.5L7.3-33.5Q7-34.4 6.53-35.02 6.05-35.65 5.55-35.7L5.55-35.7 5.45-30.7Q5.3-27.35 5.3-25.5L5.3-25.5Q5.3-23.75 5.35-23.2L5.35-23.2ZM20.3 0.3Q19.35 0.3 18.65 0.05L18.65 0.05Q17.8-0.2 17.8-1.35L17.8-1.35 17.8-30.4Q17.8-31.25 17.5-32.95L17.5-32.95Q17.15-34.5 17.15-35.5L17.15-35.5 17.15-35.65Q18-37.05 18.4-37.45L18.4-37.45Q19.1-37.45 20.25-37.65L20.25-37.65Q21.3-37.85 22.1-37.85L22.1-37.85Q22.9-37.85 23.65-37.38 24.4-36.9 24.4-36.25L24.4-36.25Q24.4-34.75 22.1-34.75L22.1-34.75 21.4-34.75Q21.1-34.8 20.7-34.8L20.7-34.8Q20.25-34.8 20.15-34.75L20.15-34.75Q20.15-33.05 20.35-30.65L20.35-30.65 20.45-29.25 20.55-26.5Q20.55-25.55 20.4-23.6L20.4-23.6 20.3-20.8 21-20.95Q22-21.25 22.65-21.25L22.65-21.25Q23.2-21.25 23.65-20.83 24.1-20.4 24.1-19.85L24.1-19.85Q24.1-19.25 23.72-18.78 23.35-18.3 22.8-18.3L22.8-18.3 22.2-18.35 21.55-18.35Q20.8-18.35 20.5-18L20.5-18 20.5-2.55 23.3-2.7Q26.15-2.7 26.15-1.4L26.15-1.4 26.15-1.2Q25.85-0.6 25.05-0.23 24.25 0.15 23.5 0.25L23.5 0.25 21.85 0.3 20.3 0.3ZM41.25 0Q40.45 0 40.07-0.3 39.7-0.6 39.7-1.3L39.7-1.3 39.7-7.85Q39.05-8.3 37.25-8.65 35.45-9 33.84-9.1L33.84-9.1Q33.3-8.05 33.05-6.55L33.05-6.55 32.84-5.55Q32.8-5.2 32.55-4 32.3-2.8 32-1.93 31.7-1.05 31.4-0.55L31.4-0.55Q29.5-0.55 29.2-1.55L29.2-1.55Q29.75-2.35 30.45-6.25L30.45-6.25 32.09-15.4Q33.2-21.9 34.12-26.5 35.05-31.1 36.09-34.2L36.09-34.2Q37.25-37.65 38.3-37.65L38.3-37.65Q39.34-37.65 39.9-37.25L39.9-37.25Q39.9-35.25 40.84-27.6L40.84-27.6Q41.84-20.1 41.84-17.35L41.84-17.35Q41.84-14.7 42.4-9.75L42.4-9.75Q42.9-4.7 42.9-1.7L42.9-1.7Q42.9 0 41.25 0L41.25 0ZM38.65-10.75Q39.05-10.75 39.65-10.9L39.65-10.9Q39.5-13.1 39.15-16.35L39.15-16.35Q38-27.65 38-30.2L38-30.2 38-30.6Q37.5-30.1 36.62-26.08 35.75-22.05 35-17.45 34.25-12.85 34.2-11.35L34.2-11.35Q36.3-10.75 38.65-10.75L38.65-10.75ZM55.74 0.8Q54.34 0.8 53.17 0.15 51.99-0.5 51.14-1.6L51.14-1.6Q50.39-2.65 49.79-4.28 49.19-5.9 48.89-7.65L48.89-7.65Q48.29-10.6 48.09-15.4L48.09-15.4Q48.04-16.55 48.04-19.35L48.04-19.35 48.04-22.5Q48.09-23.85 48.09-25.3L48.09-25.3Q48.09-28.25 48.44-29.95L48.44-29.95Q48.29-30.7 48.29-31.5L48.29-31.5Q48.29-34.5 50.54-36.35 52.79-38.2 56.24-38.2L56.24-38.2Q57.54-38.2 58.64-37.5 59.74-36.8 59.74-35.75L59.74-35.75Q59.74-35.25 59.34-34.95 58.94-34.65 58.34-34.65L58.34-34.65Q57.84-34.65 57.27-34.8 56.69-34.95 56.54-35.25L56.54-35.25 55.89-35.25 55.89-35.35Q54.04-35.35 52.79-34.55L52.79-34.55Q51.89-33.9 51.39-32.4L51.39-32.4Q51.19-31.85 51.09-31 50.99-30.15 50.99-29.45L50.99-29.45Q50.94-29.05 50.94-27.85L50.94-27.85 51.04-26.1 51.09-24.4Q51.09-23.65 50.89-22.65L50.89-22.65Q50.64-21.4 50.64-20.9L50.64-20.9 50.64-19.7Q50.64-17.75 50.79-14.35L50.79-14.35Q50.84-11.5 51.44-8.65L51.44-8.65Q51.89-6 53.14-4.15L53.14-4.15Q54.34-2.25 56.39-2.25L56.39-2.25Q57.24-2.25 58.49-3.15L58.49-3.15Q59.84-4.05 60.39-4.05L60.39-4.05Q61.09-4.05 61.84-3.3L61.84-3.3Q61.84-1.45 60.44-0.45L60.44-0.45Q59.14 0.45 57.34 0.7L57.34 0.7Q56.34 0.8 55.74 0.8L55.74 0.8ZM69.44 0.35Q68.69 0.35 68.27-0.38 67.84-1.1 67.84-2.15L67.84-2.15Q67.84-3.8 68.04-6.2L68.04-6.2 68.14-7.5 68.24-10.15Q68.24-11.9 67.89-17.95L67.89-17.95Q67.54-24 67.54-25.75L67.54-25.75Q67.54-25.9 67.56-26.33 67.59-26.75 67.59-27.65L67.59-27.65Q67.64-28.65 67.64-30.1L67.64-30.1Q67.64-33.75 67.14-34.75L67.14-34.75Q66.84-34.75 65.84-34.6L65.84-34.6 64.44-34.5Q63.79-34.5 63.29-34.88 62.79-35.25 62.79-35.85L62.79-35.85Q62.79-36.45 63.99-36.9L63.99-36.9Q65.74-37.5 69.94-37.75L69.94-37.75Q71.64-37.85 71.99-37.85L71.99-37.85Q72.59-37.85 73.09-37.45 73.59-37.05 73.59-36.45L73.59-36.45Q73.59-35.85 73.17-35.48 72.74-35.1 72.09-35.1L72.09-35.1 71.19-35.15Q70.79-35.2 70.29-35.2L70.29-35.2 69.79-35.2Q70.14-31.8 70.14-29.05L70.14-29.05 70.09-25.85Q70.04-24.4 70.04-22.6L70.04-22.6Q70.04-20.2 70.24-16.85L70.24-16.85Q70.49-12.7 70.49-11.1L70.49-11.1Q70.49-9.2 70.69-6.6L70.69-6.6Q70.89-3.95 70.89-2.1L70.89-2.1Q70.89 0.35 69.44 0.35L69.44 0.35Z" fill="#f96864" data-fill-palette-color="primary"></path><path d="M88.59 1.1Q86.79 1.1 85.49 0.45L85.49 0.45Q84.69 0 84.69-0.6L84.69-0.6Q84.69-1.2 84.99-1.58 85.29-1.95 85.84-1.95L85.84-1.95Q86.34-1.95 87.29-1.55L87.29-1.55Q88.34-1.15 88.59-1.15L88.59-1.15Q89.54-1.15 90.31-1.98 91.09-2.8 91.54-4.15L91.54-4.15Q92.44-6.65 92.44-8.65L92.44-8.65Q92.44-10.8 91.76-13.18 91.09-15.55 89.94-17.8L89.94-17.8 89.14-19.4Q87.89-21.9 87.21-23.35 86.54-24.8 86.04-26.5L86.04-26.5Q85.29-28.9 85.29-31.15L85.29-31.15Q85.29-32.95 85.91-34.55 86.54-36.15 87.79-37.25L87.79-37.25Q89.04-38.45 90.89-38.45L90.89-38.45Q91.79-38.45 92.64-37.93 93.49-37.4 93.84-36.6L93.84-36.6 92.99-35.55Q91.69-35.55 91.04-36.05L91.04-36.05Q90.14-35.95 89.46-35.18 88.79-34.4 88.44-33.4L88.44-33.4Q88.14-32.45 88.14-31.5L88.14-31.5Q88.14-29.6 88.66-27.63 89.19-25.65 90.04-23.9L90.04-23.9 93.54-16.9Q94.39-15.1 94.89-12.85 95.39-10.6 95.39-8.35L95.39-8.35Q95.39-5.05 93.79-2.15L93.79-2.15Q92.94-0.65 91.59 0.23 90.24 1.1 88.59 1.1L88.59 1.1ZM103.39 0.55Q102.74 0.55 102.21 0.08 101.69-0.4 101.69-1.05L101.69-1.05Q101.69-1.5 101.89-2.15L101.89-2.15Q102.04-2.85 102.04-3.2L102.04-3.2Q102.04-7.65 101.54-20.3L101.54-20.3Q101.04-31.1 101.04-37.35L101.04-37.35Q101.04-37.8 101.39-38.08 101.74-38.35 102.24-38.35L102.24-38.35Q102.84-38.35 103.29-37.93 103.74-37.5 103.74-36.9L103.74-36.9Q103.74-33.9 104.04-27.9L104.04-27.9Q104.29-21.25 104.29-18.9L104.29-18.9 104.34-18.3 104.34-17.7 104.34-17.35 104.34-17.1Q104.49-12.75 104.49-4.1L104.49-4.1 104.49-2.8 108.34-2.8Q109.39-2.05 109.39-1.3L109.39-1.3Q109.39-0.75 109.01-0.33 108.64 0.1 108.14 0.1L108.14 0.1Q107.99 0.1 107.59 0L107.59 0 107.39-0.05Q107.09 0 106.43 0L106.43 0 105.59 0Q105.24-0.05 104.79-0.05L104.79-0.05Q104.29 0.55 103.39 0.55L103.39 0.55ZM116.13 0.1Q115.13 0.1 114.41-0.35 113.68-0.8 113.68-1.6L113.68-1.6Q114.78-2.7 114.78-7.45L114.78-7.45Q114.78-10.3 114.33-15.75L114.33-15.75Q113.83-20.95 113.83-23.95L113.83-23.95 113.93-26.7Q113.98-27.9 113.98-29.45L113.98-29.45Q113.98-30.85 113.48-33L113.48-33Q112.88-35.25 112.88-36.15L112.88-36.15Q112.88-37.9 116.73-37.9L116.73-37.9 117.48-37.9Q120.18-37.9 122.18-36.25L122.18-36.25Q123.78-34.85 124.88-32.2L124.88-32.2Q125.63-30.4 126.18-27.2L126.18-27.2Q126.48-24.4 126.48-22.8L126.48-22.8 126.48-21.2 126.48-18.85Q126.38-18.65 126.38-18.45L126.38-18.45Q126.38-18.05 126.43-17.85L126.43-17.85Q126.48-17.65 126.48-17.35L126.48-17.35Q126.48-15.75 126.01-13.53 125.53-11.3 124.63-9L124.63-9Q122.38-3.5 119.58-1.2L119.58-1.2Q117.93 0.1 116.13 0.1L116.13 0.1ZM117.18-2.8Q119.03-3.95 120.43-6.13 121.83-8.3 122.58-10.95L122.58-10.95Q123.93-15.85 123.93-20.85L123.93-20.85Q123.93-23.55 123.43-26.75L123.43-26.75Q122.88-29.85 121.08-32.35L121.08-32.35Q120.23-33.55 118.93-34.23 117.63-34.9 115.98-34.9L115.98-34.9 115.98-34.85Q115.98-30.35 116.58-21.25L116.58-21.25Q117.18-12.2 117.18-7.55L117.18-7.55 117.18-2.8Z" fill="#ff908b" data-fill-palette-color="secondary"></path><path d="M147.38 0.75Q146.73 0.75 146.4 0.28 146.08-0.2 146.08-0.9L146.08-0.9Q146.08-11.35 145.68-18.55L145.68-18.55Q144.48-18.75 143.98-18.75L143.98-18.75Q141.93-18.75 141.03-18.4L141.03-18.4Q141.03-15.6 141.48-9.95L141.48-9.95Q141.88-3.95 141.88-1.45L141.88-1.45Q141.88-0.95 141.58-0.53 141.28-0.1 140.83-0.1L140.83-0.1Q140.18-0.1 139.63-2.4L139.63-2.4Q138.83-5.8 138.33-16.65L138.33-16.65Q137.98-24 137.98-32.45L137.98-32.45Q137.93-34 137.93-36.85L137.93-36.85Q137.93-37.75 138.78-37.75L138.78-37.75Q139.28-37.75 139.8-37.5 140.33-37.25 140.58-36.95L140.58-36.95Q140.38-35.35 140.38-33.2L140.38-33.2Q140.38-31.1 140.58-28.1L140.58-28.1Q140.73-24.65 140.73-22.9L140.73-22.9 140.73-22Q140.68-21.6 140.68-21.05L140.68-21.05Q140.68-20.55 140.78-19.75L140.78-19.75Q141.08-19.75 141.78-19.8 142.48-19.85 143.18-19.95L143.18-19.95Q144.83-20.1 145.63-20.1L145.63-20.1Q145.63-24.45 145.53-28.15L145.53-28.15 145.43-36.5 145.43-37.85Q146.08-37.85 146.58-37.63 147.08-37.4 147.33-37.05L147.33-37.05Q147.78-36.5 147.88-35.15L147.88-35.15 147.88-34Q147.88-29.7 148.38-17.55L148.38-17.55Q148.83-6.55 148.83-1.05L148.83-1.05Q148.83-0.35 148.4 0.2 147.98 0.75 147.38 0.75L147.38 0.75ZM161.68 1.4Q160.32 1.4 159.22 0.5 158.12-0.4 157.32-1.95L157.32-1.95Q155.87-4.65 155.18-9.35L155.18-9.35Q154.68-12.6 154.43-16.85L154.43-16.85 154.37-19.5 154.37-22.2Q154.32-23.5 154.32-25.35L154.32-25.35Q154.32-28.35 154.57-30.65L154.57-30.65Q154.78-33.05 155.57-35.4L155.57-35.4Q156.37-37.45 157.87-38.3L157.87-38.3Q158.78-38.7 159.68-38.7L159.68-38.7Q162.32-38.7 163.87-36.6L163.87-36.6Q165.57-34.25 166.12-31.35L166.12-31.35Q166.93-27.85 167.03-24.65L167.03-24.65Q167.23-21.1 167.23-17.95L167.23-17.95 167.23-15.1Q167.23-14.25 166.98-11.9L166.98-11.9Q166.78-10.05 166.78-8.75L166.78-8.75 166.78-8.55Q166.48-7.15 166.48-5.25L166.48-5.25Q166.48-3.85 165.87-2.35 165.28-0.85 164.18 0.2L164.18 0.2Q163.07 1.4 161.68 1.4L161.68 1.4ZM161.78-1.35Q162.78-1.35 163.48-3.2L163.48-3.2Q164.07-4.85 164.35-7.23 164.62-9.6 164.82-12.6L164.82-12.6Q164.93-13.9 164.93-15.95L164.93-15.95 164.87-20.55Q164.78-23.25 164.28-27.3L164.28-27.3Q163.87-30.75 162.78-33.4L162.78-33.4Q162.28-34.65 161.53-35.35 160.78-36.05 159.93-36.05L159.93-36.05Q158.68-36.05 158.07-34.1L158.07-34.1Q157.32-32.05 157.07-29.6L157.07-29.6Q156.78-26.95 156.73-24.55L156.73-24.55 156.68-22.9Q156.62-22.2 156.62-21L156.62-21 156.62-20.8Q156.62-17.45 157.32-12.55L157.32-12.55Q158.12-5.9 159.68-3.1L159.68-3.1Q160.68-1.35 161.78-1.35L161.78-1.35ZM179.42 1.4Q178.07 1.4 176.97 0.5 175.87-0.4 175.07-1.95L175.07-1.95Q173.62-4.65 172.92-9.35L172.92-9.35Q172.42-12.6 172.17-16.85L172.17-16.85 172.12-19.5 172.12-22.2Q172.07-23.5 172.07-25.35L172.07-25.35Q172.07-28.35 172.32-30.65L172.32-30.65Q172.52-33.05 173.32-35.4L173.32-35.4Q174.12-37.45 175.62-38.3L175.62-38.3Q176.52-38.7 177.42-38.7L177.42-38.7Q180.07-38.7 181.62-36.6L181.62-36.6Q183.32-34.25 183.87-31.35L183.87-31.35Q184.67-27.85 184.77-24.65L184.77-24.65Q184.97-21.1 184.97-17.95L184.97-17.95 184.97-15.1Q184.97-14.25 184.72-11.9L184.72-11.9Q184.52-10.05 184.52-8.75L184.52-8.75 184.52-8.55Q184.22-7.15 184.22-5.25L184.22-5.25Q184.22-3.85 183.62-2.35 183.02-0.85 181.92 0.2L181.92 0.2Q180.82 1.4 179.42 1.4L179.42 1.4ZM179.52-1.35Q180.52-1.35 181.22-3.2L181.22-3.2Q181.82-4.85 182.1-7.23 182.37-9.6 182.57-12.6L182.57-12.6Q182.67-13.9 182.67-15.95L182.67-15.95 182.62-20.55Q182.52-23.25 182.02-27.3L182.02-27.3Q181.62-30.75 180.52-33.4L180.52-33.4Q180.02-34.65 179.27-35.35 178.52-36.05 177.67-36.05L177.67-36.05Q176.42-36.05 175.82-34.1L175.82-34.1Q175.07-32.05 174.82-29.6L174.82-29.6Q174.52-26.95 174.47-24.55L174.47-24.55 174.42-22.9Q174.37-22.2 174.37-21L174.37-21 174.37-20.8Q174.37-17.45 175.07-12.55L175.07-12.55Q175.87-5.9 177.42-3.1L177.42-3.1Q178.42-1.35 179.52-1.35L179.52-1.35ZM202.37 1.15Q202.07 1.15 201.77 1.05L201.77 1.05Q201.52 1 201.22 1L201.22 1Q199.87-6.65 198.52-11.8 197.17-16.95 195.12-21.5L195.12-21.5 194.07-19.55Q193.62-18.7 193.57-18.05L193.57-18.05Q193.42-16.55 193.42-15.85L193.42-15.85Q193.42-14.35 193.57-11.25L193.57-11.25Q193.72-8.2 193.72-6.6L193.72-6.6 193.72-2.5Q193.72 0.15 192.02 0.15L192.02 0.15Q190.57 0.15 190.57-2.65L190.57-2.65Q190.57-4.85 190.87-9.4L190.87-9.4Q191.22-13.6 191.22-16.1L191.22-16.1 191.27-20.4 191.27-25.6Q191.27-28.35 190.92-31.35L190.92-31.35Q190.57-34.45 190.57-36.05L190.57-36.05Q190.57-36.7 190.97-37.15 191.37-37.6 191.97-37.6L191.97-37.6Q193.82-37.6 193.82-33.55L193.82-33.55 193.62-23.3 194.57-25.75Q196.22-29.95 197.97-34.05L197.97-34.05Q198.97-36.3 199.77-37.6L199.77-37.6Q200.62-38.95 201.12-38.95L201.12-38.95Q201.67-38.95 202.1-38.58 202.52-38.2 202.52-37.65L202.52-37.65Q202.52-37.15 199.82-31.45L199.82-31.45Q197.17-26 196.72-24.2L196.72-24.2 196.72-23.3Q197.47-21.4 200.72-11.13 203.97-0.85 203.97-0.25L203.97-0.25Q203.97 0.35 203.5 0.75 203.02 1.15 202.37 1.15L202.37 1.15ZM211.27 1.1Q209.47 1.1 208.17 0.45L208.17 0.45Q207.37 0 207.37-0.6L207.37-0.6Q207.37-1.2 207.67-1.58 207.97-1.95 208.52-1.95L208.52-1.95Q209.02-1.95 209.97-1.55L209.97-1.55Q211.02-1.15 211.27-1.15L211.27-1.15Q212.22-1.15 212.99-1.98 213.77-2.8 214.22-4.15L214.22-4.15Q215.12-6.65 215.12-8.65L215.12-8.65Q215.12-10.8 214.44-13.18 213.77-15.55 212.62-17.8L212.62-17.8 211.82-19.4Q210.57-21.9 209.89-23.35 209.22-24.8 208.72-26.5L208.72-26.5Q207.97-28.9 207.97-31.15L207.97-31.15Q207.97-32.95 208.59-34.55 209.22-36.15 210.47-37.25L210.47-37.25Q211.72-38.45 213.57-38.45L213.57-38.45Q214.47-38.45 215.32-37.93 216.17-37.4 216.52-36.6L216.52-36.6 215.67-35.55Q214.37-35.55 213.72-36.05L213.72-36.05Q212.82-35.95 212.14-35.18 211.47-34.4 211.12-33.4L211.12-33.4Q210.82-32.45 210.82-31.5L210.82-31.5Q210.82-29.6 211.34-27.63 211.87-25.65 212.72-23.9L212.72-23.9 216.22-16.9Q217.07-15.1 217.57-12.85 218.07-10.6 218.07-8.35L218.07-8.35Q218.07-5.05 216.47-2.15L216.47-2.15Q215.62-0.65 214.27 0.23 212.92 1.1 211.27 1.1L211.27 1.1Z" fill="#f96864" data-fill-palette-color="primary"></path></g></svg></g></svg></g></svg></g></svg></g><g transform="matrix(1,0,0,1,429.68541966567216,0)"><svg viewBox="0 0 173.91059918526872 173.91059918526872" height="173.91059918526872" width="173.91059918526872"><g><svg></svg></g><g id="icon-0"><svg viewBox="0 0 173.91059918526872 173.91059918526872" height="173.91059918526872" width="173.91059918526872"><g><path d="M0 86.955c0-48.024 38.931-86.955 86.955-86.955 48.024 0 86.955 38.931 86.956 86.955 0 48.024-38.931 86.955-86.956 86.956-48.024 0-86.955-38.931-86.955-86.956zM86.955 167.385c44.42 0 80.43-36.01 80.43-80.43 0-44.42-36.01-80.43-80.43-80.429-44.42 0-80.43 36.01-80.429 80.429 0 44.42 36.01 80.43 80.429 80.43z" data-fill-palette-color="accent" fill="#ff908b" stroke="transparent"></path></g><g transform="matrix(1,0,0,1,38.72486378629436,38.72486378629436)"><svg viewBox="0 0 96.46087161268001 96.46087161268001" height="96.46087161268001" width="96.46087161268001"><g><svg xmlns="http://www.w3.org/2000/svg" data-name="Layer 1" viewBox="0 0 128 128" x="0" y="0" height="96.46087161268001" width="96.46087161268001" class="icon-s-0" data-fill-palette-color="accent" id="s-0"><path d="M18.136 82.998c-4.542 11.393-4.679 20.969 0.609 26.257 2.711 2.711 6.544 3.998 11.174 3.998a41.839 41.839 0 0 0 15.084-3.387C49.847 121.133 56.521 128 64 128s14.153-6.867 18.997-18.135a41.841 41.841 0 0 0 15.084 3.387c4.628 0 8.464-1.287 11.174-3.997 5.288-5.288 5.151-14.864 0.609-26.257C121.132 78.154 128 71.479 128 64s-6.868-14.154-18.136-18.998c4.542-11.393 4.679-20.969-0.609-26.257C103.966 13.457 94.39 13.593 82.998 18.135 78.154 6.868 71.479 0 64 0 56.521 0 49.846 6.868 45.002 18.136c-11.392-4.542-20.968-4.679-26.257 0.609-5.288 5.288-5.151 14.864-0.609 26.257C6.868 49.846 0 56.521 0 64S6.868 78.154 18.136 82.998Zm3.437 23.429c-4.121-4.121-3.695-12.19 0.274-21.963a100.747 100.747 0 0 0 17.21 4.479A100.75 100.75 0 0 0 43.535 106.153C33.763 110.121 25.696 110.546 21.573 106.427Zm15.493-38.063Q35.315 66.18 33.71 64q1.604-2.179 3.356-4.364C37.027 61.078 37 62.53 37 64S37.027 66.922 37.066 68.364Zm-5.816-7.814a98.957 98.957 0 0 1-7.776-13.336A98.959 98.959 0 0 1 38.402 43.282q-0.656 4.687-1.012 9.696Q34.103 56.764 31.25 60.55ZM37.39 75.022q0.352 5.001 1.012 9.696a98.959 98.959 0 0 1-14.928-3.932 98.957 98.957 0 0 1 7.776-13.336Q34.1 71.228 37.39 75.022ZM47.736 47.736q3.382-3.382 6.856-6.436Q59.203 41.007 64 41q4.789 0 9.408 0.3 3.463 3.051 6.856 6.436 3.384 3.384 6.437 6.861Q86.993 59.206 87 64q0 4.786-0.299 9.403-3.052 3.465-6.437 6.861-3.384 3.384-6.861 6.437Q68.794 86.993 64 87q-4.786 0-9.403-0.299-3.465-3.052-6.861-6.437-3.384-3.384-6.437-6.861Q41.007 68.794 41 64q0-4.786 0.299-9.403Q44.352 51.131 47.736 47.736Zm-5.867 0.305q0.306-2.783 0.713-5.459 2.675-0.406 5.459-0.713c-1.048 0.992-2.093 1.999-3.133 3.039S42.862 46.993 41.869 48.041ZM59.625 37.067q2.189-1.756 4.375-3.361 2.184 1.608 4.375 3.361C66.929 37.027 65.474 37 64 37S61.071 37.027 59.625 37.067ZM79.959 41.869q2.783 0.306 5.459 0.713 0.406 2.675 0.713 5.459c-0.992-1.048-2-2.093-3.039-3.133S81.007 42.862 79.959 41.869Zm6.172 38.09q-0.306 2.783-0.713 5.459-2.672 0.406-5.453 0.712 1.569-1.486 3.127-3.038C84.131 82.052 85.138 81.007 86.131 79.959ZM68.364 90.934q-2.184 1.752-4.364 3.357-2.179-1.604-4.365-3.357C61.078 90.973 62.53 91 64 91S66.922 90.973 68.364 90.934ZM48.035 86.13q-2.78-0.306-5.453-0.712-0.406-2.675-0.713-5.459c0.992 1.048 2 2.093 3.039 3.133Q46.465 84.648 48.035 86.13Zm-4.753 3.468q4.685 0.655 9.691 1.012 3.786 3.288 7.573 6.143a98.939 98.939 0 0 1-13.332 7.773A98.957 98.957 0 0 1 43.282 89.598ZM64 124c-5.827 0-11.23-6.004-15.334-15.718a100.87 100.87 0 0 0 15.334-9.011 100.857 100.857 0 0 0 15.335 9.01C75.231 117.996 69.827 124 64 124Zm16.786-19.473A98.95 98.95 0 0 1 67.454 96.753q3.778-2.851 7.574-6.143 4.998-0.352 9.69-1.012A98.956 98.956 0 0 1 80.786 104.527Zm25.641 1.9c-4.121 4.122-12.19 3.696-21.963-0.273a100.752 100.752 0 0 0 4.479-17.211 100.747 100.747 0 0 0 17.21-4.479C110.122 94.237 110.547 102.306 106.427 106.427ZM90.934 59.636Q92.685 61.82 94.29 64q-1.604 2.179-3.356 4.364C90.973 66.922 91 65.47 91 64S90.973 61.078 90.934 59.636ZM90.61 52.978q-0.352-5.001-1.012-9.696a98.959 98.959 0 0 1 14.928 3.932 98.957 98.957 0 0 1-7.776 13.336Q93.9 56.772 90.61 52.978Zm0 22.044q3.287-3.785 6.14-7.572a98.957 98.957 0 0 1 7.776 13.336A98.959 98.959 0 0 1 89.598 84.718Q90.254 80.031 90.61 75.022ZM124 64c0 5.828-6.006 11.232-15.723 15.336A100.743 100.743 0 0 0 99.274 64 100.743 100.743 0 0 0 108.277 48.664C117.994 52.768 124 58.172 124 64ZM98.044 18.67c3.534 0 6.41 0.932 8.383 2.903 4.121 4.121 3.695 12.19-0.273 21.963a100.747 100.747 0 0 0-17.211-4.479 100.75 100.75 0 0 0-4.479-17.211A37.466 37.466 0 0 1 98.044 18.67ZM84.718 38.402q-4.687-0.656-9.696-1.012-3.784-3.286-7.569-6.138a99.022 99.022 0 0 1 13.333-7.779A98.949 98.949 0 0 1 84.718 38.402ZM64 4c5.828 0 11.232 6.006 15.336 15.722a100.746 100.746 0 0 0-15.337 9.004A100.755 100.755 0 0 0 48.664 19.723C52.768 10.006 58.172 4 64 4ZM47.214 23.474a99.029 99.029 0 0 1 13.333 7.778q-3.777 2.85-7.569 6.138-5.001 0.352-9.696 1.012A98.954 98.954 0 0 1 47.214 23.474ZM21.573 21.573c1.973-1.973 4.848-2.903 8.383-2.903a37.465 37.465 0 0 1 13.58 3.176 100.749 100.749 0 0 0-4.479 17.211A100.747 100.747 0 0 0 21.846 43.536C17.878 33.763 17.453 25.694 21.573 21.573ZM19.723 48.664A100.743 100.743 0 0 0 28.726 64 100.743 100.743 0 0 0 19.723 79.336C10.006 75.232 4 69.828 4 64S10.006 52.768 19.723 48.664Z" fill="#ff908b" data-fill-palette-color="accent"></path><path d="M64 81A17 17 0 1 0 47 64 17.019 17.019 0 0 0 64 81Zm0-30A13 13 0 1 1 51 64 13.015 13.015 0 0 1 64 51Z" fill="#ff908b" data-fill-palette-color="accent"></path><path d="M64 72a8 8 0 1 0-8-8A8.009 8.009 0 0 0 64 72Zm0-12a4 4 0 1 1-4 4A4.004 4.004 0 0 1 64 60Z" fill="#ff908b" data-fill-palette-color="accent"></path></svg></g></svg></g></svg></g></svg></g></svg></g><defs></defs></svg><rect width="395.52" height="113.95886990888866" fill="none" stroke="none" visibility="hidden"></rect></g></svg></g></svg>